<svg xmlns="http://www.w3.org/2000/svg" xmlns:xlink="http://www.w3.org/1999/xlink" width="40" zoomAndPan="magnify" viewBox="0 0 30 30.000001" height="40" preserveAspectRatio="xMidYMid meet" version="1.0"><defs><g/><clipPath id="b6b3c6f789"><path d="M 0.484375 0 L 29.515625 0 L 29.515625 29.03125 L 0.484375 29.03125 Z M 0.484375 0 " clip-rule="nonzero"/></clipPath><clipPath id="a4361a6512"><path d="M 15 0 C 6.984375 0 0.484375 6.5 0.484375 14.515625 C 0.484375 22.53125 6.984375 29.03125 15 29.03125 C 23.015625 29.03125 29.515625 22.53125 29.515625 14.515625 C 29.515625 6.5 23.015625 0 15 0 Z M 15 0 " clip-rule="nonzero"/></clipPath><clipPath id="e9d5e482c2"><path d="M 0.484375 0 L 29.515625 0 L 29.515625 29.03125 L 0.484375 29.03125 Z M 0.484375 0 " clip-rule="nonzero"/></clipPath><clipPath id="8db377a325"><path d="M 15 0 C 6.984375 0 0.484375 6.5 0.484375 14.515625 C 0.484375 22.53125 6.984375 29.03125 15 29.03125 C 23.015625 29.03125 29.515625 22.53125 29.515625 14.515625 C 29.515625 6.5 23.015625 0 15 0 Z M 15 0 " clip-rule="nonzero"/></clipPath><linearGradient x1="0" gradientTransform="matrix(0.113407, 0, 0, 0.113407, 0.48387, 0.00000193548)" y1="256" x2="256" gradientUnits="userSpaceOnUse" y2="0" id="1e8621460a"><stop stop-opacity="1" stop-color="rgb(8.239746%, 36.468506%, 98.81897%)" offset="0"/><stop stop-opacity="1" stop-color="rgb(8.306885%, 36.572266%, 98.828125%)" offset="0.0078125"/><stop stop-opacity="1" stop-color="rgb(8.441162%, 36.781311%, 98.846436%)" offset="0.015625"/><stop stop-opacity="1" stop-color="rgb(8.575439%, 36.988831%, 98.864746%)" offset="0.0234375"/><stop stop-opacity="1" stop-color="rgb(8.709717%, 37.197876%, 98.883057%)" offset="0.03125"/><stop stop-opacity="1" stop-color="rgb(8.84552%, 37.405396%, 98.902893%)" offset="0.0390625"/><stop stop-opacity="1" stop-color="rgb(8.979797%, 37.614441%, 98.921204%)" offset="0.046875"/><stop stop-opacity="1" stop-color="rgb(9.114075%, 37.82196%, 98.939514%)" offset="0.0546875"/><stop stop-opacity="1" stop-color="rgb(9.249878%, 38.031006%, 98.957825%)" offset="0.0625"/><stop stop-opacity="1" stop-color="rgb(9.384155%, 38.238525%, 98.976135%)" offset="0.0703125"/><stop stop-opacity="1" stop-color="rgb(9.518433%, 38.447571%, 98.994446%)" offset="0.078125"/><stop stop-opacity="1" stop-color="rgb(9.65271%, 38.65509%, 99.012756%)" offset="0.0859375"/><stop stop-opacity="1" stop-color="rgb(9.788513%, 38.864136%, 99.031067%)" offset="0.09375"/><stop stop-opacity="1" stop-color="rgb(9.922791%, 39.071655%, 99.049377%)" offset="0.101562"/><stop stop-opacity="1" stop-color="rgb(10.057068%, 39.280701%, 99.067688%)" offset="0.109375"/><stop stop-opacity="1" stop-color="rgb(10.191345%, 39.48822%, 99.085999%)" offset="0.117188"/><stop stop-opacity="1" stop-color="rgb(10.327148%, 39.697266%, 99.104309%)" offset="0.125"/><stop stop-opacity="1" stop-color="rgb(10.461426%, 39.904785%, 99.124146%)" offset="0.132812"/><stop stop-opacity="1" stop-color="rgb(10.595703%, 40.113831%, 99.142456%)" offset="0.140625"/><stop stop-opacity="1" stop-color="rgb(10.731506%, 40.32135%, 99.160767%)" offset="0.148438"/><stop stop-opacity="1" stop-color="rgb(10.865784%, 40.530396%, 99.179077%)" offset="0.15625"/><stop stop-opacity="1" stop-color="rgb(11.000061%, 40.737915%, 99.197388%)" offset="0.164062"/><stop stop-opacity="1" stop-color="rgb(11.134338%, 40.94696%, 99.215698%)" offset="0.171875"/><stop stop-opacity="1" stop-color="rgb(11.270142%, 41.15448%, 99.234009%)" offset="0.179688"/><stop stop-opacity="1" stop-color="rgb(11.404419%, 41.363525%, 99.252319%)" offset="0.1875"/><stop stop-opacity="1" stop-color="rgb(11.538696%, 41.571045%, 99.27063%)" offset="0.195312"/><stop stop-opacity="1" stop-color="rgb(11.672974%, 41.78009%, 99.28894%)" offset="0.203125"/><stop stop-opacity="1" stop-color="rgb(11.808777%, 41.98761%, 99.307251%)" offset="0.210938"/><stop stop-opacity="1" stop-color="rgb(11.943054%, 42.196655%, 99.325562%)" offset="0.21875"/><stop stop-opacity="1" stop-color="rgb(12.077332%, 42.404175%, 99.345398%)" offset="0.226562"/><stop stop-opacity="1" stop-color="rgb(12.211609%, 42.61322%, 99.363708%)" offset="0.234375"/><stop stop-opacity="1" stop-color="rgb(12.347412%, 42.82074%, 99.382019%)" offset="0.242188"/><stop stop-opacity="1" stop-color="rgb(12.481689%, 43.029785%, 99.40033%)" offset="0.25"/><stop stop-opacity="1" stop-color="rgb(12.615967%, 43.237305%, 99.41864%)" offset="0.257812"/><stop stop-opacity="1" stop-color="rgb(12.75177%, 43.44635%, 99.436951%)" offset="0.265625"/><stop stop-opacity="1" stop-color="rgb(12.886047%, 43.65387%, 99.455261%)" offset="0.273438"/><stop stop-opacity="1" stop-color="rgb(13.020325%, 43.862915%, 99.473572%)" offset="0.28125"/><stop stop-opacity="1" stop-color="rgb(13.154602%, 44.070435%, 99.491882%)" offset="0.289062"/><stop stop-opacity="1" stop-color="rgb(13.290405%, 44.27948%, 99.510193%)" offset="0.296875"/><stop stop-opacity="1" stop-color="rgb(13.424683%, 44.487%, 99.528503%)" offset="0.304688"/><stop stop-opacity="1" stop-color="rgb(13.55896%, 44.696045%, 99.546814%)" offset="0.3125"/><stop stop-opacity="1" stop-color="rgb(13.693237%, 44.903564%, 99.56665%)" offset="0.320312"/><stop stop-opacity="1" stop-color="rgb(13.829041%, 45.11261%, 99.584961%)" offset="0.328125"/><stop stop-opacity="1" stop-color="rgb(13.963318%, 45.320129%, 99.603271%)" offset="0.335938"/><stop stop-opacity="1" stop-color="rgb(14.097595%, 45.529175%, 99.621582%)" offset="0.34375"/><stop stop-opacity="1" stop-color="rgb(14.231873%, 45.736694%, 99.639893%)" offset="0.351562"/><stop stop-opacity="1" stop-color="rgb(14.367676%, 45.94574%, 99.658203%)" offset="0.359375"/><stop stop-opacity="1" stop-color="rgb(14.501953%, 46.153259%, 99.676514%)" offset="0.367188"/><stop stop-opacity="1" stop-color="rgb(14.63623%, 46.362305%, 99.694824%)" offset="0.375"/><stop stop-opacity="1" stop-color="rgb(14.772034%, 46.569824%, 99.713135%)" offset="0.382812"/><stop stop-opacity="1" stop-color="rgb(14.906311%, 46.77887%, 99.731445%)" offset="0.390625"/><stop stop-opacity="1" stop-color="rgb(15.040588%, 46.986389%, 99.749756%)" offset="0.398438"/><stop stop-opacity="1" stop-color="rgb(15.174866%, 47.195435%, 99.768066%)" offset="0.40625"/><stop stop-opacity="1" stop-color="rgb(15.310669%, 47.402954%, 99.787903%)" offset="0.414062"/><stop stop-opacity="1" stop-color="rgb(15.444946%, 47.612%, 99.806213%)" offset="0.421875"/><stop stop-opacity="1" stop-color="rgb(15.579224%, 47.819519%, 99.824524%)" offset="0.429688"/><stop stop-opacity="1" stop-color="rgb(15.713501%, 48.028564%, 99.842834%)" offset="0.4375"/><stop stop-opacity="1" stop-color="rgb(15.849304%, 48.236084%, 99.861145%)" offset="0.445312"/><stop stop-opacity="1" stop-color="rgb(15.983582%, 48.445129%, 99.879456%)" offset="0.453125"/><stop stop-opacity="1" stop-color="rgb(16.117859%, 48.652649%, 99.897766%)" offset="0.460938"/><stop stop-opacity="1" stop-color="rgb(16.253662%, 48.861694%, 99.916077%)" offset="0.46875"/><stop stop-opacity="1" stop-color="rgb(16.387939%, 49.069214%, 99.934387%)" offset="0.476562"/><stop stop-opacity="1" stop-color="rgb(16.522217%, 49.278259%, 99.952698%)" offset="0.484375"/><stop stop-opacity="1" stop-color="rgb(16.656494%, 49.485779%, 99.971008%)" offset="0.492188"/><stop stop-opacity="1" stop-color="rgb(16.792297%, 49.694824%, 99.989319%)" offset="0.5"/><stop stop-opacity="1" stop-color="rgb(16.975403%, 49.905396%, 100%)" offset="0.507812"/><stop stop-opacity="1" stop-color="rgb(17.207336%, 50.120544%, 100%)" offset="0.515625"/><stop stop-opacity="1" stop-color="rgb(17.440796%, 50.335693%, 100%)" offset="0.523438"/><stop stop-opacity="1" stop-color="rgb(17.674255%, 50.549316%, 100%)" offset="0.53125"/><stop stop-opacity="1" stop-color="rgb(17.906189%, 50.764465%, 100%)" offset="0.539062"/><stop stop-opacity="1" stop-color="rgb(18.139648%, 50.978088%, 100%)" offset="0.546875"/><stop stop-opacity="1" stop-color="rgb(18.371582%, 51.193237%, 100%)" offset="0.554688"/><stop stop-opacity="1" stop-color="rgb(18.605042%, 51.408386%, 100%)" offset="0.5625"/><stop stop-opacity="1" stop-color="rgb(18.836975%, 51.622009%, 100%)" offset="0.570312"/><stop stop-opacity="1" stop-color="rgb(19.070435%, 51.837158%, 100%)" offset="0.578125"/><stop stop-opacity="1" stop-color="rgb(19.303894%, 52.050781%, 100%)" offset="0.585938"/><stop stop-opacity="1" stop-color="rgb(19.535828%, 52.26593%, 100%)" offset="0.59375"/><stop stop-opacity="1" stop-color="rgb(19.769287%, 52.481079%, 100%)" offset="0.601562"/><stop stop-opacity="1" stop-color="rgb(20.001221%, 52.694702%, 100%)" offset="0.609375"/><stop stop-opacity="1" stop-color="rgb(20.23468%, 52.909851%, 100%)" offset="0.617188"/><stop stop-opacity="1" stop-color="rgb(20.46814%, 53.123474%, 100%)" offset="0.625"/><stop stop-opacity="1" stop-color="rgb(20.700073%, 53.338623%, 100%)" offset="0.632812"/><stop stop-opacity="1" stop-color="rgb(20.933533%, 53.553772%, 100%)" offset="0.640625"/><stop stop-opacity="1" stop-color="rgb(21.165466%, 53.767395%, 100%)" offset="0.648438"/><stop stop-opacity="1" stop-color="rgb(21.398926%, 53.982544%, 100%)" offset="0.65625"/><stop stop-opacity="1" stop-color="rgb(21.630859%, 54.196167%, 100%)" offset="0.664062"/><stop stop-opacity="1" stop-color="rgb(21.864319%, 54.411316%, 100%)" offset="0.671875"/><stop stop-opacity="1" stop-color="rgb(22.097778%, 54.626465%, 100%)" offset="0.679688"/><stop stop-opacity="1" stop-color="rgb(22.329712%, 54.840088%, 100%)" offset="0.6875"/><stop stop-opacity="1" stop-color="rgb(22.563171%, 55.055237%, 100%)" offset="0.695312"/><stop stop-opacity="1" stop-color="rgb(22.795105%, 55.26886%, 100%)" offset="0.703125"/><stop stop-opacity="1" stop-color="rgb(23.028564%, 55.484009%, 100%)" offset="0.710938"/><stop stop-opacity="1" stop-color="rgb(23.260498%, 55.697632%, 100%)" offset="0.71875"/><stop stop-opacity="1" stop-color="rgb(23.493958%, 55.912781%, 100%)" offset="0.726562"/><stop stop-opacity="1" stop-color="rgb(23.727417%, 56.12793%, 100%)" offset="0.734375"/><stop stop-opacity="1" stop-color="rgb(23.959351%, 56.341553%, 100%)" offset="0.742188"/><stop stop-opacity="1" stop-color="rgb(24.19281%, 56.556702%, 100%)" offset="0.75"/><stop stop-opacity="1" stop-color="rgb(24.424744%, 56.770325%, 100%)" offset="0.757812"/><stop stop-opacity="1" stop-color="rgb(24.658203%, 56.985474%, 100%)" offset="0.765625"/><stop stop-opacity="1" stop-color="rgb(24.890137%, 57.200623%, 100%)" offset="0.773438"/><stop stop-opacity="1" stop-color="rgb(25.123596%, 57.414246%, 100%)" offset="0.78125"/><stop stop-opacity="1" stop-color="rgb(25.357056%, 57.629395%, 100%)" offset="0.789062"/><stop stop-opacity="1" stop-color="rgb(25.588989%, 57.843018%, 100%)" offset="0.796875"/><stop stop-opacity="1" stop-color="rgb(25.822449%, 58.058167%, 100%)" offset="0.804688"/><stop stop-opacity="1" stop-color="rgb(26.054382%, 58.273315%, 100%)" offset="0.8125"/><stop stop-opacity="1" stop-color="rgb(26.287842%, 58.486938%, 100%)" offset="0.820312"/><stop stop-opacity="1" stop-color="rgb(26.519775%, 58.702087%, 100%)" offset="0.828125"/><stop stop-opacity="1" stop-color="rgb(26.753235%, 58.91571%, 100%)" offset="0.835938"/><stop stop-opacity="1" stop-color="rgb(26.986694%, 59.130859%, 100%)" offset="0.84375"/><stop stop-opacity="1" stop-color="rgb(27.218628%, 59.346008%, 100%)" offset="0.851562"/><stop stop-opacity="1" stop-color="rgb(27.452087%, 59.559631%, 100%)" offset="0.859375"/><stop stop-opacity="1" stop-color="rgb(27.684021%, 59.77478%, 100%)" offset="0.867188"/><stop stop-opacity="1" stop-color="rgb(27.91748%, 59.988403%, 100%)" offset="0.875"/><stop stop-opacity="1" stop-color="rgb(28.15094%, 60.203552%, 100%)" offset="0.882812"/><stop stop-opacity="1" stop-color="rgb(28.382874%, 60.418701%, 100%)" offset="0.890625"/><stop stop-opacity="1" stop-color="rgb(28.616333%, 60.632324%, 100%)" offset="0.898438"/><stop stop-opacity="1" stop-color="rgb(28.848267%, 60.847473%, 100%)" offset="0.90625"/><stop stop-opacity="1" stop-color="rgb(29.081726%, 61.061096%, 100%)" offset="0.914062"/><stop stop-opacity="1" stop-color="rgb(29.31366%, 61.276245%, 100%)" offset="0.921875"/><stop stop-opacity="1" stop-color="rgb(29.547119%, 61.491394%, 100%)" offset="0.929688"/><stop stop-opacity="1" stop-color="rgb(29.780579%, 61.705017%, 100%)" offset="0.9375"/><stop stop-opacity="1" stop-color="rgb(30.012512%, 61.920166%, 100%)" offset="0.945312"/><stop stop-opacity="1" stop-color="rgb(30.245972%, 62.133789%, 100%)" offset="0.953125"/><stop stop-opacity="1" stop-color="rgb(30.477905%, 62.348938%, 100%)" offset="0.960938"/><stop stop-opacity="1" stop-color="rgb(30.711365%, 62.564087%, 100%)" offset="0.96875"/><stop stop-opacity="1" stop-color="rgb(30.943298%, 62.77771%, 100%)" offset="0.976562"/><stop stop-opacity="1" stop-color="rgb(31.176758%, 62.992859%, 100%)" offset="0.984375"/><stop stop-opacity="1" stop-color="rgb(31.410217%, 63.206482%, 100%)" offset="0.992188"/><stop stop-opacity="1" stop-color="rgb(31.642151%, 63.421631%, 100%)" offset="1"/></linearGradient><clipPath id="6ad73ba459"><rect x="0" width="30" y="0" height="30"/></clipPath><clipPath id="1db1cc4e98"><path d="M 7 0 L 23 0 L 23 29.03125 L 7 29.03125 Z M 7 0 " clip-rule="nonzero"/></clipPath><clipPath id="b79b60f7ce"><path d="M 0.21875 3 L 15 3 L 15 24 L 0.21875 24 Z M 0.21875 3 " clip-rule="nonzero"/></clipPath><clipPath id="7be558026f"><rect x="0" width="16" y="0" height="30"/></clipPath></defs><g clip-path="url(#b6b3c6f789)"><g clip-path="url(#a4361a6512)"><g transform="matrix(1, 0, 0, 1, 0, 0.000000000000005692)"><g clip-path="url(#6ad73ba459)"><g clip-path="url(#e9d5e482c2)"><g clip-path="url(#8db377a325)"><path fill="url(#1e8621460a)" d="M 0.484375 0 L 0.484375 29.03125 L 29.515625 29.03125 L 29.515625 0 Z M 0.484375 0 " fill-rule="nonzero"/></g></g></g></g></g></g><g clip-path="url(#1db1cc4e98)"><g transform="matrix(1, 0, 0, 1, 7, 0.000000000000005692)"><g clip-path="url(#7be558026f)"><g clip-path="url(#b79b60f7ce)"><g fill="#ffffff" fill-opacity="1"><g transform="translate(0.685438, 23.829043)"><g><path d="M 9.796875 -10.984375 C 9.929688 -11.003906 10.132812 -11.015625 10.40625 -11.015625 C 11.351562 -11.015625 12.066406 -10.757812 12.546875 -10.25 C 13.023438 -9.738281 13.265625 -9.003906 13.265625 -8.046875 C 13.265625 -7.898438 13.242188 -7.628906 13.203125 -7.234375 C 13.023438 -5.828125 12.613281 -4.523438 11.96875 -3.328125 C 11.332031 -2.140625 10.347656 -1.242188 9.015625 -0.640625 C 8.140625 -0.234375 7.101562 -0.03125 5.90625 -0.03125 C 5.5 -0.03125 5.1875 -0.0390625 4.96875 -0.0625 C 3.28125 -0.195312 2.019531 -0.804688 1.1875 -1.890625 C 0.351562 -2.972656 -0.117188 -4.398438 -0.234375 -6.171875 C -0.253906 -6.515625 -0.265625 -7.015625 -0.265625 -7.671875 C -0.265625 -9.316406 -0.128906 -10.789062 0.140625 -12.09375 C 0.648438 -14.4375 1.550781 -16.296875 2.84375 -17.671875 C 4.414062 -19.304688 6.210938 -20.125 8.234375 -20.125 C 10.359375 -20.125 11.867188 -19.328125 12.765625 -17.734375 C 13.128906 -17.015625 13.3125 -16.125 13.3125 -15.0625 C 13.3125 -14.25 13.234375 -13.453125 13.078125 -12.671875 C 13.023438 -12.367188 12.84375 -12.21875 12.53125 -12.21875 L 8.78125 -12.09375 C 8.582031 -12.070312 8.425781 -12.140625 8.3125 -12.296875 C 8.195312 -12.453125 8.160156 -12.617188 8.203125 -12.796875 C 8.316406 -13.429688 8.375 -14.003906 8.375 -14.515625 C 8.375 -15.109375 8.207031 -15.484375 7.875 -15.640625 C 7.71875 -15.703125 7.59375 -15.734375 7.5 -15.734375 C 7.03125 -15.734375 6.488281 -15.285156 5.875 -14.390625 C 4.90625 -12.804688 4.421875 -10.472656 4.421875 -7.390625 C 4.421875 -6.828125 4.472656 -6.25 4.578125 -5.65625 C 4.679688 -5.0625 4.890625 -4.6875 5.203125 -4.53125 C 5.472656 -4.375 5.742188 -4.296875 6.015625 -4.296875 C 6.421875 -4.296875 6.800781 -4.453125 7.15625 -4.765625 C 7.519531 -5.078125 7.789062 -5.46875 7.96875 -5.9375 L 6.78125 -5.734375 L 6.625 -5.734375 C 6.46875 -5.734375 6.34375 -5.78125 6.25 -5.875 C 6.113281 -6.007812 6.054688 -6.179688 6.078125 -6.390625 L 6.625 -10.125 C 6.6875 -10.445312 6.863281 -10.617188 7.15625 -10.640625 C 8.570312 -10.835938 9.453125 -10.953125 9.796875 -10.984375 Z M 9.125 -17.96875 L 9.21875 -17.96875 L 9.28125 -18.03125 C 9.332031 -18.082031 9.359375 -18.109375 9.359375 -18.109375 L 9.09375 -18.140625 L 9.09375 -18.03125 Z M 9.765625 -17.859375 C 9.710938 -17.835938 9.632812 -17.828125 9.53125 -17.828125 C 9.519531 -17.828125 9.460938 -17.773438 9.359375 -17.671875 L 9.453125 -17.59375 L 9.765625 -17.59375 L 9.828125 -17.625 L 9.828125 -17.671875 C 9.753906 -17.671875 9.71875 -17.703125 9.71875 -17.765625 C 9.71875 -17.785156 9.734375 -17.816406 9.765625 -17.859375 Z M 12.21875 -17.59375 C 12.226562 -17.570312 12.265625 -17.5625 12.328125 -17.5625 L 12.453125 -17.671875 L 12.390625 -17.671875 C 12.367188 -17.691406 12.316406 -17.703125 12.234375 -17.703125 L 12.21875 -17.671875 Z M 10.78125 -17.46875 C 10.726562 -17.457031 10.703125 -17.441406 10.703125 -17.421875 C 10.703125 -17.316406 10.75 -17.265625 10.84375 -17.265625 L 10.96875 -17.265625 L 10.984375 -17.328125 C 11.003906 -17.328125 11.015625 -17.335938 11.015625 -17.359375 C 11.035156 -17.378906 11.046875 -17.410156 11.046875 -17.453125 C 11.046875 -17.484375 11 -17.519531 10.90625 -17.5625 Z M 11.484375 -17.46875 C 11.441406 -17.4375 11.421875 -17.410156 11.421875 -17.390625 C 11.421875 -17.367188 11.472656 -17.328125 11.578125 -17.265625 L 11.609375 -17.328125 L 11.609375 -17.453125 C 11.609375 -17.460938 11.566406 -17.46875 11.484375 -17.46875 Z M 9.515625 -16.984375 C 9.566406 -16.984375 9.613281 -16.972656 9.65625 -16.953125 L 9.65625 -17.046875 L 9.71875 -17.09375 C 9.632812 -17.132812 9.554688 -17.15625 9.484375 -17.15625 C 9.398438 -17.15625 9.359375 -17.125 9.359375 -17.0625 Z M 11.25 -17.015625 L 11.25 -17.0625 L 11.21875 -17.09375 L 11.1875 -16.984375 Z M 7.5 -16.953125 L 7.53125 -17.015625 L 7.46875 -17.015625 L 7.4375 -16.953125 Z M 7.734375 -16.8125 L 7.765625 -16.6875 L 8 -16.6875 C 8 -16.726562 7.976562 -16.785156 7.9375 -16.859375 C 7.914062 -16.847656 7.878906 -16.84375 7.828125 -16.84375 Z M 10.359375 -16.484375 C 10.359375 -16.441406 10.375 -16.425781 10.40625 -16.4375 C 10.445312 -16.445312 10.46875 -16.472656 10.46875 -16.515625 L 10.46875 -16.609375 L 10.359375 -16.609375 Z M 10.328125 -16.25 C 10.328125 -16.195312 10.359375 -16.140625 10.421875 -16.078125 C 10.492188 -16.023438 10.566406 -16 10.640625 -16 C 10.703125 -16 10.742188 -16.003906 10.765625 -16.015625 L 10.84375 -16.015625 C 10.84375 -16.035156 10.832031 -16.054688 10.8125 -16.078125 C 10.789062 -16.097656 10.765625 -16.109375 10.734375 -16.109375 C 10.671875 -16.109375 10.640625 -16.144531 10.640625 -16.21875 C 10.597656 -16.238281 10.578125 -16.269531 10.578125 -16.3125 C 10.578125 -16.351562 10.5625 -16.375 10.53125 -16.375 L 10.359375 -16.34375 Z M 9.96875 -16.25 C 9.96875 -16.3125 9.941406 -16.34375 9.890625 -16.34375 C 9.847656 -16.300781 9.804688 -16.28125 9.765625 -16.28125 C 9.734375 -16.28125 9.71875 -16.257812 9.71875 -16.21875 C 9.71875 -16.1875 9.734375 -16.171875 9.765625 -16.171875 L 9.9375 -16.171875 C 9.957031 -16.171875 9.96875 -16.195312 9.96875 -16.25 Z M 9.59375 -15.9375 C 9.65625 -15.976562 9.632812 -16.003906 9.53125 -16.015625 L 9.53125 -15.9375 Z M 10.578125 -15.53125 C 10.578125 -15.53125 10.597656 -15.507812 10.640625 -15.46875 C 10.660156 -15.46875 10.671875 -15.476562 10.671875 -15.5 C 10.691406 -15.519531 10.695312 -15.539062 10.6875 -15.5625 C 10.675781 -15.59375 10.660156 -15.609375 10.640625 -15.609375 C 10.597656 -15.578125 10.578125 -15.550781 10.578125 -15.53125 Z M 10.234375 -15.5 C 10.234375 -15.550781 10.132812 -15.578125 9.9375 -15.578125 L 9.71875 -15.578125 C 9.59375 -15.578125 9.515625 -15.5625 9.484375 -15.53125 C 9.515625 -15.507812 9.570312 -15.476562 9.65625 -15.4375 C 9.75 -15.394531 9.828125 -15.367188 9.890625 -15.359375 L 10.125 -15.375 C 10.195312 -15.394531 10.234375 -15.4375 10.234375 -15.5 Z M 10.0625 -15.0625 L 10.125 -15.125 L 10.125 -15.203125 C 10.125 -15.265625 10.082031 -15.296875 10 -15.296875 L 9.921875 -15.265625 L 9.890625 -15.265625 L 9.890625 -15.15625 Z M 10.875 -15 C 10.914062 -15.019531 10.9375 -15.0625 10.9375 -15.125 L 10.875 -15.15625 L 10.78125 -15.125 L 10.671875 -15.125 C 10.691406 -15.101562 10.757812 -15.0625 10.875 -15 Z M 9.890625 -14.65625 C 9.941406 -14.65625 9.976562 -14.675781 10 -14.71875 L 10.140625 -14.796875 C 10.179688 -14.796875 10.210938 -14.804688 10.234375 -14.828125 L 10.234375 -14.921875 L 10.171875 -14.96875 L 10.0625 -15.03125 C 10 -14.894531 9.882812 -14.828125 9.71875 -14.828125 L 9.765625 -14.71875 C 9.785156 -14.675781 9.828125 -14.65625 9.890625 -14.65625 Z M 4.765625 -14.796875 C 4.722656 -14.773438 4.703125 -14.738281 4.703125 -14.6875 C 4.703125 -14.644531 4.78125 -14.585938 4.9375 -14.515625 L 5.0625 -14.453125 L 5.125 -14.59375 C 5.125 -14.59375 5.023438 -14.691406 4.828125 -14.890625 C 4.828125 -14.867188 4.804688 -14.835938 4.765625 -14.796875 Z M 10.609375 -14.59375 C 10.691406 -14.59375 10.734375 -14.613281 10.734375 -14.65625 C 10.710938 -14.695312 10.671875 -14.71875 10.609375 -14.71875 C 10.578125 -14.632812 10.578125 -14.59375 10.609375 -14.59375 Z M 2.390625 -14.328125 C 2.390625 -14.328125 2.390625 -14.332031 2.390625 -14.34375 C 2.398438 -14.351562 2.40625 -14.359375 2.40625 -14.359375 C 2.40625 -14.359375 2.398438 -14.363281 2.390625 -14.375 C 2.390625 -14.382812 2.390625 -14.390625 2.390625 -14.390625 L 2.390625 -14.421875 C 2.328125 -14.421875 2.296875 -14.382812 2.296875 -14.3125 C 2.335938 -14.3125 2.367188 -14.316406 2.390625 -14.328125 Z M 4.703125 -14.25 C 4.671875 -14.226562 4.644531 -14.195312 4.625 -14.15625 C 4.601562 -14.125 4.59375 -14.097656 4.59375 -14.078125 L 4.765625 -14.078125 C 4.867188 -14.148438 5.003906 -14.1875 5.171875 -14.1875 Z M 10.328125 -14.015625 C 10.328125 -14.078125 10.296875 -14.113281 10.234375 -14.125 C 10.117188 -14.113281 10.0625 -14.078125 10.0625 -14.015625 L 10.140625 -13.984375 L 10.234375 -13.953125 C 10.273438 -13.992188 10.304688 -14.015625 10.328125 -14.015625 Z M 9.9375 -14.015625 C 9.9375 -14.035156 9.914062 -14.054688 9.875 -14.078125 C 9.84375 -14.097656 9.804688 -14.109375 9.765625 -14.109375 C 9.691406 -14.109375 9.65625 -14.078125 9.65625 -14.015625 Z M 8.484375 -12.625 C 8.367188 -12.5625 8.3125 -12.503906 8.3125 -12.453125 L 8.484375 -12.453125 C 8.503906 -12.460938 8.515625 -12.488281 8.515625 -12.53125 C 8.492188 -12.550781 8.484375 -12.582031 8.484375 -12.625 Z M 10.265625 -10.296875 L 10.125 -10.296875 L 10.125 -10.234375 C 10.125 -10.253906 10.140625 -10.265625 10.171875 -10.265625 Z M 11.578125 -10.203125 C 11.554688 -10.222656 11.503906 -10.234375 11.421875 -10.234375 C 11.285156 -10.234375 11.203125 -10.175781 11.171875 -10.0625 C 11.242188 -10.019531 11.300781 -10 11.34375 -10 L 11.578125 -10.0625 Z M 11.484375 -9.859375 L 11.421875 -9.859375 L 11.421875 -9.734375 L 11.484375 -9.734375 Z M 11.515625 -8.078125 L 11.546875 -8.3125 L 11.578125 -8.671875 L 11.453125 -8.78125 C 11.515625 -8.875 11.546875 -8.953125 11.546875 -9.015625 C 11.546875 -9.054688 11.535156 -9.082031 11.515625 -9.09375 L 11.546875 -9.359375 L 11.453125 -9.359375 C 11.429688 -9.359375 11.40625 -9.34375 11.375 -9.3125 L 11.3125 -9.25 C 11.375 -9.050781 11.394531 -8.941406 11.375 -8.921875 C 11.351562 -8.898438 11.34375 -8.851562 11.34375 -8.78125 L 11.34375 -7.84375 C 11.320312 -7.832031 11.3125 -7.796875 11.3125 -7.734375 L 11.3125 -6.6875 C 11.351562 -6.625 11.390625 -6.59375 11.421875 -6.59375 C 11.460938 -6.59375 11.515625 -6.625 11.578125 -6.6875 L 11.578125 -6.921875 C 11.535156 -7.117188 11.515625 -7.351562 11.515625 -7.625 L 11.515625 -7.9375 L 11.546875 -8.03125 Z M 10.703125 -7.5625 C 10.742188 -7.582031 10.765625 -7.609375 10.765625 -7.640625 L 10.578125 -7.671875 L 10.5625 -7.59375 Z M 2.96875 -5.8125 C 2.988281 -5.851562 3 -5.910156 3 -5.984375 C 2.976562 -6.046875 2.96875 -6.113281 2.96875 -6.1875 L 2.90625 -6.21875 L 2.703125 -6.21875 C 2.660156 -6.050781 2.648438 -5.957031 2.671875 -5.9375 L 2.703125 -5.8125 L 2.828125 -5.8125 C 2.878906 -5.789062 2.925781 -5.789062 2.96875 -5.8125 Z M 5.265625 -2.84375 L 5.203125 -2.703125 L 5.265625 -2.703125 L 5.328125 -2.671875 L 5.4375 -2.671875 L 5.4375 -2.84375 Z M 7.03125 -1.140625 C 7.007812 -1.117188 6.972656 -1.109375 6.921875 -1.109375 C 6.859375 -1.109375 6.8125 -1.085938 6.78125 -1.046875 L 6.78125 -1.015625 C 6.78125 -1.015625 6.78125 -1.007812 6.78125 -1 C 6.789062 -0.988281 6.796875 -0.984375 6.796875 -0.984375 L 7.125 -0.984375 L 7.1875 -1.046875 Z M 7.03125 -1.140625 "/></g></g></g></g></g></g></g></svg>